<svg xmlns="http://www.w3.org/2000/svg" width="166.985" height="45.435" viewBox="0 0 166.985 45.435"><defs><style>.a{fill:none;stroke:#fff;stroke-miterlimit:10;stroke-width:2px;}</style></defs><g transform="translate(1 1)"><path class="a" d="M21.83.12A21.71,21.71,0,0,0,.12,21.83v21.71H21.83a21.683,21.683,0,0,0,17.4-8.724l-.031.031H8.813V4.244" transform="translate(-0.12 -0.12)"/><g transform="translate(44.891 0.046)"><path class="a" d="M68.511,22.75a21.682,21.682,0,0,1-17.4,8.724H29.4V22.8H68.465" transform="translate(-29.4 11.9)"/><path class="a" d="M32.22,8.828A21.685,21.685,0,0,1,49.622.15h21.71V8.8H32.251" transform="translate(-27.896 -0.15)"/><path class="a" d="M72.814,15.789a22.387,22.387,0,0,1-.429,4.339H29.41V15.789a22.387,22.387,0,0,1,.429-4.339H72.814Z" transform="translate(-29.395 5.875)"/></g><path class="a" d="M70.178,4.244V17.491H96.165V.12H104.9V21.83a21.681,21.681,0,0,1-8.77,17.4l.031-.031V26.184H70.178V43.555H61.5V21.83A21.71,21.71,0,0,1,83.21.12H96.165" transform="translate(32.606 -0.12)"/><path class="a" d="M115.29.13A21.71,21.71,0,0,0,93.58,21.84v21.71h8.678V26.163h13.017V17.486H102.242V4.239" transform="translate(49.71 -0.115)"/></g></svg>